<?xml version="1.0" encoding="UTF-8"?>
<!-- Full-bleed app-icon derived from logo.svg (white canvas dropped so the
     squircle is the edge). Source of truth for favicon + raster exports. -->
<svg version="1.1" viewBox="0 0 1254 1254" width="1254" height="1254" xmlns="http://www.w3.org/2000/svg">
<rect width="1254" height="1254" rx="280" fill="#062120"/>
<path transform="translate(926,285)" d="m0 0h21l7 4 4 5 3 8v52l-2 35-4 35-5 29-6 26-9 29-11 27-10 20-11 18-11 15-9 11-11 12-9 9-11 9-16 12-22 13-27 13-28 10-36 10-23 7-20 9-13 8-10 8-9 8-10 13-8 14-5 11-5 17-3 18-1 78-4 9-8 6-3 1h-11l-8-4-5-6-1-3v-274l2-39 3-26 5-26 7-25 9-24 11-23 10-17 11-16 13-16 9-10 18-18 11-9 16-12 20-12 21-11 25-10 25-8 34-8 38-6 36-4z" fill="#43DA7A"/>
<path transform="translate(909,329)" d="m0 0h9v17l-2 37-4 36-6 33-7 27-7 20-11 25-11 20-12 17-11 13-19 19-13 10-15 10-18 10-23 10-30 10-41 12-19 8-16 8-14 10h-3l8-14 12-16 11-13 11-12 112-112 2 2 6 16 6 10 4 3 5 1 5-2 3-12 13-78v-10l-3-6-4-3-3-1h-8l-50 16-41 14-2 3v7l5 5 12 5 4 1 16 1-2 4-121 121-9 11-10 14h-1v-35l2-32 4-30 6-25 7-21 8-18 11-21 13-19 11-13 7-8 13-13 14-11 11-8 13-8 23-12 20-8 25-8 32-7 38-6z" fill="#062120"/>
<path transform="translate(316,476)" d="m0 0h42l26 3 22 5 21 7 21 10 14 9 12 9 13 12 11 12 11 16 10 18 8 21 5 18 4 26 1 14v41l-5 10-6 4-3 1h-25l-25-3-23-5-20-6-25-11-19-11-16-12-12-11-14-14-11-15-8-13-8-16-6-15-6-21-4-24-1-11v-34l5-8 5-4z" fill="#43DA7A"/>
<path transform="translate(341,710)" d="m0 0 9 1 6 3 6 7 2 5 2 25 3 19 6 23 7 20 13 27 10 16 10 14 11 13 7 8 14 14 10 8 17 13 20 12 17 9 25 10 24 7 28 5 11 1h41l27-4 25-6 20-7 20-9 17-9 18-12 13-10 15-13 13-13 11-14 9-12 14-23 9-19 8-21 6-23 4-24h-102l-8-4-5-6-2-5v-10l4-8 6-5 5-2h130l6 3 6 7 1 2v25l-4 29-6 25-9 26-12 26-12 21-12 17-11 14-11 12-7 8-13 12-13 11-18 13-20 12-17 9-24 10-24 8-25 6-20 3-27 2h-13l-20-1-29-4-25-6-27-9-25-11-20-11-17-11-12-9-10-8-12-11-20-20-11-14-11-15-13-21-8-15-11-26-8-25-6-27-3-26v-17l4-8 9-6z" fill="#43DA7A"/>
<path transform="translate(341,517)" d="m0 0h19l26 4 18 5 16 7 13 7 14 10 11 10 9 11 8 11 8 16 6 15 5 21 2 14 1 22-13-1-24-5-18-6-20-9-17-10-14-11-10-9-9-11-8-11-8-14-7-17-4-13-4-23z" fill="#062120"/>
</svg>
